# xmcd CD database file
#
# Track frame offsets:
#	150
#	13037
#	26977
#	46107
#	62702
#	81054
#	84662
#	105402
#	121622
#	136167
#	149292
#	167057
#	187562
#	191847
#	206525
#	220977
#	224247
#	238810
#	253420
#	269972
#
# Disc length: 3849 seconds
#
# Revision: 0
# Processed by: cddbd v1.5.1PL0 Copyright (c) Steve Scherf et al.
# Submitted via: CDex 1.51
#
DISCID=2e0f0714
DTITLE=Diamond Joe White - Honestly
DYEAR=1997
DGENRE=Country
TTITLE0=The Hearse Song
TTITLE1=Ode to Wilf Carter
TTITLE2=95 Point Ride
TTITLE3=Freedom's Borderline
TTITLE4=Honestly
TTITLE5=The Rain Vote
TTITLE6=Rainy Day
TTITLE7=Ship of Life
TTITLE8=Maybe In the Morning
TTITLE9=Where's the Reason
TTITLE10=High Rider
TTITLE11=Just Like Old Beginnings
TTITLE12=Ferry to Nanaimo
TTITLE13=Cowichan Bay
TTITLE14=Searching For Tomorrow
TTITLE15=For Bob
TTITLE16=Buffalo Skinner
TTITLE17=Passin' Thru
TTITLE18=Ballad of Louis Riel
TTITLE19=Fires of Love
EXTD=YEAR: 1997
EXTT0=
EXTT1=
EXTT2=
EXTT3=
EXTT4=
EXTT5=
EXTT6=
EXTT7=
EXTT8=
EXTT9=
EXTT10=
EXTT11=
EXTT12=
EXTT13=
EXTT14=
EXTT15=
EXTT16=
EXTT17=
EXTT18=
EXTT19=
PLAYORDER=
